#define result_width 100
#define result_height 100
static char result_bits[] = {
  0xFF, 0xFF, 0xFF, 0xFF, 0xFF, 0xFF, 0xFF, 0xFF, 0xFF, 0xFF, 0xFF, 0xFF, 
  0x0F, 0xFF, 0xFF, 0xFF, 0xFF, 0xFF, 0xFF, 0xFF, 0xFF, 0xFF, 0xFF, 0xFF, 
  0xFF, 0x0F, 0xFF, 0xFF, 0xFF, 0xFF, 0xFF, 0xFF, 0xFF, 0xFF, 0xFF, 0xFF, 
  0xFF, 0xFF, 0x0F, 0x07, 0x00, 0x00, 0x00, 0x00, 0x00, 0x00, 0x00, 0x00, 
  0x00, 0x00, 0x00, 0x0E, 0x07, 0x00, 0x00, 0x00, 0x00, 0x00, 0x00, 0x00, 
  0x00, 0x00, 0x00, 0x00, 0x0E, 0x07, 0x00, 0x00, 0x00, 0x00, 0x00, 0x00, 
  0x00, 0x00, 0x00, 0x00, 0x00, 0x0E, 0x07, 0x00, 0x00, 0x00, 0x00, 0x00, 
  0x00, 0x00, 0x00, 0x00, 0x00, 0x00, 0x0E, 0x07, 0x00, 0x00, 0x00, 0x00, 
  0x00, 0x00, 0x00, 0x00, 0x00, 0x00, 0x00, 0x0E, 0x07, 0x00, 0x00, 0x00, 
  0x00, 0x00, 0x00, 0x00, 0x00, 0x00, 0x00, 0x00, 0x0E, 0x07, 0x00, 0x00, 
  0x00, 0x00, 0x00, 0x00, 0x00, 0x00, 0x00, 0x00, 0x00, 0x0E, 0x07, 0x00, 
  0x00, 0x00, 0x00, 0x00, 0x00, 0x00, 0x00, 0x00, 0x00, 0x00, 0x0E, 0x07, 
  0x00, 0x00, 0x00, 0x00, 0xC0, 0x5F, 0x00, 0x00, 0x00, 0x00, 0x00, 0x0E, 
  0x07, 0x00, 0x00, 0x00, 0x80, 0xFF, 0xFF, 0x07, 0x00, 0x00, 0x00, 0x00, 
  0x0E, 0x07, 0x00, 0x00, 0x00, 0xE0, 0x7F, 0xE4, 0x3F, 0x00, 0x00, 0x00, 
  0x00, 0x0E, 0x07, 0x00, 0x00, 0x00, 0xF8, 0x05, 0x00, 0xFE, 0x00, 0x00, 
  0x00, 0x00, 0x0E, 0x07, 0x00, 0x00, 0x00, 0x3E, 0x00, 0x00, 0xF0, 0x03, 
  0x00, 0x00, 0x00, 0x0E, 0x07, 0x00, 0x00, 0x00, 0x0F, 0x00, 0x00, 0x80, 
  0x07, 0x00, 0x00, 0x00, 0x0E, 0x07, 0x00, 0x00, 0x80, 0x03, 0x00, 0x00, 
  0x00, 0x1F, 0x00, 0x00, 0x00, 0x0E, 0x07, 0x00, 0x00, 0xC0, 0x01, 0x00, 
  0x00, 0x00, 0x3C, 0x00, 0x00, 0x00, 0x0E, 0x07, 0x00, 0x00, 0xE0, 0x00, 
  0x00, 0x00, 0x00, 0x38, 0x00, 0x00, 0x00, 0x0E, 0x07, 0x00, 0x00, 0x70, 
  0x00, 0x00, 0x00, 0x00, 0x70, 0x00, 0x00, 0x00, 0x0E, 0x07, 0x00, 0x00, 
  0x30, 0x00, 0x00, 0x00, 0x00, 0xE0, 0x00, 0x00, 0x00, 0x0E, 0x07, 0x00, 
  0x00, 0x18, 0x00, 0x00, 0x00, 0x00, 0xC0, 0x00, 0x00, 0x00, 0x0E, 0x07, 
  0x00, 0x00, 0x18, 0x00, 0x00, 0x00, 0x00, 0x80, 0x01, 0x00, 0x00, 0x0E, 
  0x07, 0x00, 0x00, 0x0C, 0x00, 0x00, 0x00, 0x00, 0x80, 0x01, 0x00, 0x00, 
  0x0E, 0x07, 0x00, 0x00, 0x0C, 0x00, 0x00, 0x00, 0x00, 0x00, 0x03, 0x00, 
  0x00, 0x0E, 0x07, 0x00, 0x00, 0x06, 0x00, 0x00, 0x00, 0x00, 0x00, 0x07, 
  0x00, 0x00, 0x0E, 0x07, 0x00, 0x00, 0x06, 0x00, 0x00, 0x00, 0x00, 0x00, 
  0x03, 0x00, 0x00, 0x0E, 0x07, 0x00, 0x00, 0x06, 0x00, 0x00, 0x00, 0x00, 
  0x20, 0x06, 0x00, 0x00, 0x0E, 0x07, 0x00, 0x00, 0x07, 0x00, 0x00, 0x00, 
  0x00, 0x20, 0x06, 0x00, 0x00, 0x0E, 0x07, 0x00, 0x00, 0x37, 0x00, 0x00, 
  0x00, 0x00, 0x20, 0x06, 0x00, 0x00, 0x0E, 0x07, 0x00, 0x00, 0x33, 0x00, 
  0x00, 0x00, 0x00, 0x60, 0x0E, 0x00, 0x00, 0x0E, 0x07, 0x00, 0x00, 0x33, 
  0x00, 0x00, 0x00, 0x00, 0x60, 0x06, 0x00, 0x00, 0x0E, 0x07, 0x00, 0x00, 
  0x37, 0x00, 0x00, 0x00, 0x00, 0x20, 0x06, 0x00, 0x00, 0x0E, 0x07, 0x00, 
  0x00, 0x27, 0x00, 0x00, 0x00, 0x00, 0x30, 0x06, 0x00, 0x00, 0x0E, 0x07, 
  0x00, 0x00, 0x67, 0x00, 0x00, 0x00, 0x00, 0x70, 0x06, 0x00, 0x00, 0x0E, 
  0x07, 0x00, 0x00, 0x67, 0x00, 0x00, 0x00, 0x00, 0x30, 0x06, 0x00, 0x00, 
  0x0E, 0x07, 0x00, 0x00, 0x66, 0x00, 0x00, 0x00, 0x00, 0x30, 0x06, 0x00, 
  0x00, 0x0E, 0x07, 0x00, 0x00, 0xE6, 0x00, 0x00, 0x00, 0x00, 0x38, 0x06, 
  0x00, 0x00, 0x0E, 0x07, 0x00, 0x00, 0xCE, 0x00, 0x00, 0x00, 0x00, 0x30, 
  0x03, 0x00, 0x00, 0x0E, 0x07, 0x00, 0x00, 0xCC, 0xC0, 0x01, 0x00, 0x7F, 
  0x38, 0x03, 0x00, 0x00, 0x0E, 0x07, 0x00, 0x00, 0xDC, 0xF0, 0x0F, 0xC0, 
  0xFF, 0x11, 0x03, 0x00, 0x00, 0x0E, 0x07, 0x00, 0x00, 0xD8, 0xFC, 0x3F, 
  0xE0, 0xFF, 0xB9, 0x01, 0x00, 0x00, 0x0E, 0x07, 0x00, 0x00, 0xD8, 0xFE, 
  0x3F, 0xE0, 0xFF, 0xB3, 0x01, 0x00, 0x00, 0x0E, 0x07, 0x00, 0x00, 0xF8, 
  0xFE, 0x3F, 0xE0, 0xFF, 0xF3, 0x01, 0x00, 0x00, 0x0E, 0x07, 0x00, 0x00, 
  0xF0, 0xFE, 0x7F, 0xF0, 0xFF, 0xF3, 0x00, 0x00, 0x00, 0x0E, 0x07, 0x00, 
  0x00, 0x70, 0xFC, 0x7F, 0xE0, 0xFF, 0xF3, 0x00, 0x00, 0x00, 0x0E, 0x07, 
  0x00, 0x00, 0x60, 0xFE, 0x3F, 0xE0, 0xFF, 0x63, 0x00, 0x00, 0x00, 0x0E, 
  0x07, 0x00, 0x01, 0x70, 0xFE, 0x3F, 0xC0, 0xFF, 0xE1, 0x00, 0x00, 0x00, 
  0x0E, 0x07, 0x80, 0x0F, 0x30, 0xFC, 0x1F, 0xC0, 0xFF, 0xC1, 0x00, 0x0E, 
  0x00, 0x0E, 0x07, 0x80, 0x0F, 0x30, 0xF8, 0x1F, 0x86, 0xFF, 0xC0, 0x00, 
  0x1E, 0x00, 0x0E, 0x07, 0xC0, 0x3F, 0x30, 0xF8, 0x07, 0x0F, 0xFF, 0xC0, 
  0x80, 0x1F, 0x00, 0x0E, 0x07, 0xC0, 0x3D, 0x30, 0xF0, 0x03, 0x1F, 0x7C, 
  0xC0, 0x80, 0x3B, 0x00, 0x0E, 0x07, 0xC0, 0xF1, 0x30, 0x40, 0x81, 0x1F, 
  0x00, 0xC0, 0xC0, 0x39, 0x00, 0x0E, 0x07, 0xE0, 0xF1, 0x31, 0x00, 0xC0, 
  0x3F, 0x00, 0x60, 0xE0, 0x78, 0x00, 0x0E, 0x07, 0xE0, 0xC0, 0x67, 0x00, 
  0xC0, 0x3F, 0x00, 0x60, 0x7C, 0x78, 0x00, 0x0E, 0x07, 0x70, 0x00, 0xFF, 
  0x00, 0xC0, 0x3F, 0x00, 0x30, 0x3E, 0xF0, 0x00, 0x0E, 0x07, 0x70, 0x0C, 
  0xFE, 0x00, 0xC0, 0x7F, 0x00, 0xF0, 0x0F, 0xE0, 0x00, 0x0E, 0x07, 0xF0, 
  0x7F, 0xE0, 0x0F, 0xC0, 0x7F, 0x00, 0xFE, 0x81, 0xFF, 0x00, 0x0E, 0x07, 
  0xE0, 0xF7, 0xC1, 0x3F, 0xE0, 0x7F, 0x80, 0x7F, 0xE0, 0xFF, 0x00, 0x0E, 
  0x07, 0x00, 0xE0, 0x07, 0x7F, 0xE0, 0x7F, 0xF0, 0x0F, 0xFC, 0x03, 0x00, 
  0x0E, 0x07, 0x00, 0x00, 0x1F, 0xFF, 0xC0, 0x7B, 0xF8, 0x07, 0x7E, 0x00, 
  0x00, 0x0E, 0x07, 0x00, 0x00, 0xFE, 0xD6, 0x00, 0x01, 0xD0, 0xC7, 0x0F, 
  0x00, 0x00, 0x0E, 0x07, 0x00, 0x00, 0xF0, 0xF7, 0x00, 0x00, 0x78, 0xF7, 
  0x03, 0x00, 0x00, 0x0E, 0x07, 0x00, 0x00, 0xC0, 0xE7, 0x01, 0x00, 0x78, 
  0x7F, 0x00, 0x00, 0x00, 0x0E, 0x07, 0x00, 0x00, 0x00, 0xE7, 0x03, 0x00, 
  0x7C, 0x3F, 0x00, 0x00, 0x00, 0x0E, 0x07, 0x00, 0x00, 0x00, 0xE6, 0x5F, 
  0xDC, 0x7F, 0x06, 0x00, 0x00, 0x00, 0x0E, 0x07, 0x00, 0x00, 0x00, 0xE6, 
  0xFF, 0xFF, 0x7F, 0x07, 0x00, 0x00, 0x00, 0x0E, 0x07, 0x00, 0x00, 0x00, 
  0xE6, 0xF5, 0x96, 0x3F, 0x03, 0x00, 0x00, 0x00, 0x0E, 0x07, 0x00, 0x00, 
  0x00, 0xCC, 0x97, 0xB6, 0x3F, 0x07, 0x00, 0x00, 0x00, 0x0E, 0x07, 0x00, 
  0x00, 0x00, 0xC4, 0xFF, 0xF6, 0x1F, 0x03, 0x00, 0x00, 0x00, 0x0E, 0x07, 
  0x00, 0x00, 0x00, 0x8E, 0xFF, 0xFF, 0x0F, 0x03, 0x00, 0x00, 0x00, 0x0E, 
  0x07, 0x00, 0x00, 0x00, 0x8E, 0xF7, 0xBF, 0x07, 0x07, 0x00, 0x00, 0x00, 
  0x0E, 0x07, 0x00, 0x00, 0x80, 0x0F, 0xBF, 0xA5, 0x87, 0x1F, 0x00, 0x00, 
  0x00, 0x0E, 0x07, 0x00, 0x00, 0xF0, 0x1F, 0xBC, 0xF5, 0x81, 0x7F, 0x00, 
  0x00, 0x00, 0x0E, 0x07, 0x00, 0x00, 0xFC, 0x38, 0xE0, 0x7F, 0xC0, 0xF8, 
  0x01, 0x00, 0x00, 0x0E, 0x07, 0x00, 0xDF, 0x3F, 0x70, 0x80, 0x0B, 0xE0, 
  0xE0, 0x07, 0x0A, 0x00, 0x0E, 0x07, 0x80, 0xFF, 0x0F, 0xF8, 0x00, 0x00, 
  0xE0, 0x03, 0xFF, 0x3F, 0x00, 0x0E, 0x07, 0x80, 0xFB, 0x01, 0xFF, 0x01, 
  0x00, 0xF0, 0x07, 0xFE, 0x3F, 0x00, 0x0E, 0x07, 0x00, 0x07, 0xC0, 0x8F, 
  0x07, 0x00, 0x18, 0x1F, 0xF0, 0x39, 0x00, 0x0E, 0x07, 0x00, 0x0E, 0xF8, 
  0x03, 0x0E, 0x00, 0x0E, 0x7C, 0x00, 0x3C, 0x00, 0x0E, 0x07, 0x00, 0x0E, 
  0xFC, 0x00, 0x7C, 0x80, 0x07, 0xF0, 0x01, 0x1C, 0x00, 0x0E, 0x07, 0x00, 
  0x1E, 0x1F, 0x00, 0xF8, 0xF9, 0x07, 0xC0, 0x07, 0x0E, 0x00, 0x0E, 0x07, 
  0x00, 0x9C, 0x07, 0x00, 0xE0, 0xFF, 0x01, 0x00, 0x0F, 0x0F, 0x00, 0x0E, 
  0x07, 0x00, 0xDC, 0x01, 0x00, 0x00, 0x17, 0x00, 0x00, 0x3C, 0x07, 0x00, 
  0x0E, 0x07, 0x00, 0xFC, 0x00, 0x00, 0x00, 0x00, 0x00, 0x00, 0x38, 0x07, 
  0x00, 0x0E, 0x07, 0x00, 0x78, 0x00, 0x00, 0x00, 0x00, 0x00, 0x00, 0xF8, 
  0x03, 0x00, 0x0E, 0x07, 0x00, 0x30, 0x00, 0x00, 0x00, 0x00, 0x00, 0x00, 
  0xE0, 0x03, 0x00, 0x0E, 0x07, 0x00, 0x00, 0x00, 0x00, 0x00, 0x00, 0x00, 
  0x00, 0x80, 0x01, 0x00, 0x0E, 0x07, 0x00, 0x00, 0x00, 0x00, 0x00, 0x00, 
  0x00, 0x00, 0x00, 0x00, 0x00, 0x0E, 0x07, 0x00, 0x00, 0x00, 0x00, 0x00, 
  0x00, 0x00, 0x00, 0x00, 0x00, 0x00, 0x0E, 0x07, 0x00, 0x00, 0x00, 0x00, 
  0x00, 0x00, 0x00, 0x00, 0x00, 0x00, 0x00, 0x0E, 0x07, 0x00, 0x00, 0x00, 
  0x00, 0x00, 0x00, 0x00, 0x00, 0x00, 0x00, 0x00, 0x0E, 0x07, 0x00, 0x00, 
  0x00, 0x00, 0x00, 0x00, 0x00, 0x00, 0x00, 0x00, 0x00, 0x0E, 0x07, 0x00, 
  0x00, 0x00, 0x00, 0x00, 0x00, 0x00, 0x00, 0x00, 0x00, 0x00, 0x0E, 0x07, 
  0x00, 0x00, 0x00, 0x00, 0x00, 0x00, 0x00, 0x00, 0x00, 0x00, 0x00, 0x0E, 
  0x07, 0x00, 0x00, 0x00, 0x00, 0x00, 0x00, 0x00, 0x00, 0x00, 0x00, 0x00, 
  0x0E, 0xFF, 0xFF, 0xFF, 0xFF, 0xFF, 0xFF, 0xFF, 0xFF, 0xFF, 0xFF, 0xFF, 
  0xFF, 0x0F, 0xFF, 0xFF, 0xFF, 0xFF, 0xFF, 0xFF, 0xFF, 0xFF, 0xFF, 0xFF, 
  0xFF, 0xFF, 0x0F, 0xFF, 0xFF, 0xFF, 0xFF, 0xFF, 0xFF, 0xFF, 0xFF, 0xFF, 
  0xFF, 0xFF, 0xFF, 0x0F, };
